<?xml version="1.0" encoding="iso-8859-1"?>
<!-- Generator: Adobe Illustrator 19.0.0, SVG Export Plug-In . SVG Version: 6.00 Build 0)  -->
<svg version="1.1" id="Layer_1" xmlns="http://www.w3.org/2000/svg" xmlns:xlink="http://www.w3.org/1999/xlink" x="0px" y="0px"
	 viewBox="0 0 512 512" style="enable-background:new 0 0 512 512;" xml:space="preserve">
<polygon style="fill:#8A8791;" points="66.202,99.632 43.235,122.658 61.806,141.128 112.665,90.14 94.094,71.67 86.492,79.29 "/>
<polygon style="fill:#787780;" points="445.798,99.632 468.765,122.658 450.194,141.128 399.335,90.14 417.906,71.67 425.508,79.29 
	"/>
<rect x="221.97" y="38.14" style="fill:#8A8791;" width="69.22" height="68.26"/>
<g>
	<path style="fill:#787780;" d="M256.576,85.278v18.386h-34.609V87.797C228.249,86.6,239.18,85.278,256.576,85.278z"/>
	<rect x="255.95" y="38.14" style="fill:#787780;" width="35.19" height="68.26"/>
	<polygon style="fill:#787780;" points="376.559,145.119 417.044,104.841 435.545,123.379 395.06,163.659 	"/>
</g>
<g>
	<polygon style="fill:#8A8791;" points="130.309,140.028 93.797,103.664 75.311,122.218 111.822,158.584 	"/>
	<path style="fill:#8A8791;" d="M464.561,303.681C464.561,418.736,371.159,512,255.943,512
		c-115.205,0-208.606-93.264-208.606-208.319c0-115.044,93.402-208.307,208.606-208.307
		C371.159,95.374,464.561,188.637,464.561,303.681z"/>
</g>
<path style="fill:#787780;" d="M464.561,303.681C464.561,418.736,371.159,512,255.943,512V95.374
	C371.159,95.374,464.561,188.637,464.561,303.681z"/>
<path style="fill:#FFFFFF;" d="M422.761,303.681c0,91.998-74.694,166.577-166.818,166.577S89.136,395.679,89.136,303.681
	c0-91.987,74.682-166.565,166.807-166.565S422.761,211.695,422.761,303.681z"/>
<path style="fill:#F5F5F5;" d="M422.761,303.681c0,91.998-74.694,166.577-166.818,166.577V137.116
	C348.068,137.116,422.761,211.695,422.761,303.681z"/>
<rect x="184.39" style="fill:#8A8791;" width="143.22" height="38.14"/>
<g>
	<rect x="255.38" style="fill:#787780;" width="72.18" height="38.14"/>
	<path style="fill:#787780;" d="M247.371,446.152v-42.328c0-4.766,3.862-8.629,8.629-8.629s8.629,3.864,8.629,8.629v42.328
		c0,4.766-3.862,8.629-8.629,8.629C251.234,454.781,247.371,450.917,247.371,446.152z"/>
	<path style="fill:#787780;" d="M247.371,203.549v-42.328c0-4.766,3.862-8.629,8.629-8.629s8.629,3.864,8.629,8.629v42.328
		c0,4.766-3.862,8.629-8.629,8.629C251.234,212.178,247.371,208.314,247.371,203.549z"/>
	<path style="fill:#787780;" d="M113.535,295.058h42.328c4.766,0,8.629,3.862,8.629,8.629s-3.864,8.629-8.629,8.629h-42.328
		c-4.766,0-8.629-3.862-8.629-8.629C104.906,298.92,108.769,295.058,113.535,295.058z"/>
	<path style="fill:#787780;" d="M356.139,295.058h42.328c4.766,0,8.629,3.862,8.629,8.629s-3.864,8.629-8.629,8.629h-42.328
		c-4.766,0-8.629-3.862-8.629-8.629S351.372,295.058,356.139,295.058z"/>
	<path style="fill:#787780;" d="M255.945,312.31c-1.113,0-2.234-0.215-3.303-0.658c-3.223-1.336-5.324-4.483-5.324-7.971v-66.477
		c0-4.767,3.864-8.629,8.629-8.629c4.766,0,8.629,3.862,8.629,8.629v45.665l16.499-16.467c3.372-3.368,8.836-3.363,12.203,0.009
		c3.368,3.373,3.363,8.837-0.009,12.204l-31.226,31.172C260.395,311.436,258.189,312.31,255.945,312.31z"/>
</g>
<g>
</g>
<g>
</g>
<g>
</g>
<g>
</g>
<g>
</g>
<g>
</g>
<g>
</g>
<g>
</g>
<g>
</g>
<g>
</g>
<g>
</g>
<g>
</g>
<g>
</g>
<g>
</g>
<g>
</g>
</svg>
